<svg width="161" height="19" viewBox="0 0 161 19" fill="none" xmlns="http://www.w3.org/2000/svg">
<path d="M0.321023 18V0.545454H12.2358V3.97159H4.53977V7.55114H11.4773V10.9858H4.53977V18H0.321023ZM14.3601 18V0.545454H18.5788V14.5739H25.8402V18H14.3601ZM43.8189 9.27273C43.8189 11.1932 43.4496 12.821 42.7109 14.1562C41.9723 15.4915 40.9723 16.5057 39.7109 17.1989C38.4553 17.892 37.0462 18.2386 35.4837 18.2386C33.9155 18.2386 32.5036 17.8892 31.2479 17.1903C29.9922 16.4915 28.995 15.4773 28.2564 14.1477C27.5234 12.8125 27.157 11.1875 27.157 9.27273C27.157 7.35227 27.5234 5.72443 28.2564 4.3892C28.995 3.05398 29.9922 2.03977 31.2479 1.34659C32.5036 0.653409 33.9155 0.306818 35.4837 0.306818C37.0462 0.306818 38.4553 0.653409 39.7109 1.34659C40.9723 2.03977 41.9723 3.05398 42.7109 4.3892C43.4496 5.72443 43.8189 7.35227 43.8189 9.27273ZM39.5064 9.27273C39.5064 8.13636 39.3445 7.17614 39.0206 6.39205C38.7024 5.60795 38.2422 5.0142 37.6399 4.61079C37.0433 4.20739 36.3246 4.00568 35.4837 4.00568C34.6484 4.00568 33.9297 4.20739 33.3274 4.61079C32.7251 5.0142 32.2621 5.60795 31.9382 6.39205C31.62 7.17614 31.4609 8.13636 31.4609 9.27273C31.4609 10.4091 31.62 11.3693 31.9382 12.1534C32.2621 12.9375 32.7251 13.5312 33.3274 13.9347C33.9297 14.3381 34.6484 14.5398 35.4837 14.5398C36.3246 14.5398 37.0433 14.3381 37.6399 13.9347C38.2422 13.5312 38.7024 12.9375 39.0206 12.1534C39.3445 11.3693 39.5064 10.4091 39.5064 9.27273ZM49.5994 18L44.5199 0.545454H49.1818L51.8153 11.983H51.9602L54.9688 0.545454H58.7699L61.7784 12.0085H61.9233L64.5653 0.545454H69.2188L64.1477 18H60.0824L56.9375 7.41477H56.8011L53.6562 18H49.5994ZM70.9616 18V0.545454H83.1321V3.97159H75.1804V7.55114H82.5099V10.9858H75.1804V14.5739H83.1321V18H70.9616ZM95.2088 5.77841C95.152 5.15341 94.8991 4.66761 94.4503 4.32102C94.0071 3.96875 93.3736 3.79261 92.5497 3.79261C92.0043 3.79261 91.5497 3.86364 91.1861 4.00568C90.8224 4.14773 90.5497 4.34375 90.3679 4.59375C90.1861 4.83807 90.0923 5.11932 90.0866 5.4375C90.0753 5.69886 90.1264 5.92898 90.2401 6.12784C90.3594 6.3267 90.5298 6.50284 90.7514 6.65625C90.9787 6.80398 91.2514 6.93466 91.5696 7.0483C91.8878 7.16193 92.2457 7.26136 92.6435 7.34659L94.1435 7.6875C95.0071 7.875 95.7685 8.125 96.4276 8.4375C97.0923 8.75 97.6491 9.12216 98.098 9.55398C98.5526 9.9858 98.8963 10.483 99.1293 11.0455C99.3622 11.608 99.4815 12.2386 99.4872 12.9375C99.4815 14.0398 99.2031 14.9858 98.652 15.7756C98.1009 16.5653 97.3082 17.1705 96.2741 17.5909C95.2457 18.0114 94.0043 18.2216 92.5497 18.2216C91.0895 18.2216 89.8168 18.0028 88.7315 17.5653C87.6463 17.1278 86.8026 16.4631 86.2003 15.571C85.598 14.679 85.2884 13.5511 85.2713 12.1875H89.3111C89.3452 12.75 89.4957 13.2188 89.7628 13.5938C90.0298 13.9688 90.3963 14.2528 90.8622 14.446C91.3338 14.6392 91.8793 14.7358 92.4986 14.7358C93.0668 14.7358 93.5497 14.6591 93.9474 14.5057C94.3509 14.3523 94.6605 14.1392 94.8764 13.8665C95.0923 13.5937 95.2031 13.2812 95.2088 12.929C95.2031 12.5994 95.1009 12.3182 94.902 12.0852C94.7031 11.8466 94.3963 11.642 93.9815 11.4716C93.5724 11.2955 93.0497 11.1335 92.4134 10.9858L90.5895 10.5597C89.0781 10.2131 87.8878 9.65341 87.0185 8.88068C86.1491 8.10227 85.7173 7.05114 85.723 5.72727C85.7173 4.64773 86.0071 3.7017 86.5923 2.8892C87.1776 2.0767 87.9872 1.44318 89.0213 0.988636C90.0554 0.534091 91.2344 0.306818 92.5582 0.306818C93.9105 0.306818 95.0838 0.536931 96.0781 0.997158C97.0781 1.4517 97.8537 2.09091 98.4048 2.91477C98.956 3.73864 99.2372 4.69318 99.2486 5.77841H95.2088ZM101.047 3.97159V0.545454H115.8V3.97159H110.507V18H106.348V3.97159H101.047ZM119.456 18H114.922L120.811 0.545454H126.428L132.317 18H127.783L123.683 4.94318H123.547L119.456 18ZM118.851 11.1307H128.328V14.3352H118.851V11.1307ZM131.445 3.97159V0.545454H146.198V3.97159H140.906V18H136.746V3.97159H131.445ZM148.259 18V0.545454H160.429V3.97159H152.477V7.55114H159.807V10.9858H152.477V14.5739H160.429V18H148.259Z" fill="#22CF29"/>
<path d="M0.321023 18H-2.67898V21H0.321023V18ZM0.321023 0.545454V-2.45455H-2.67898V0.545454H0.321023ZM12.2358 0.545454H15.2358V-2.45455H12.2358V0.545454ZM12.2358 3.97159V6.97159H15.2358V3.97159H12.2358ZM4.53977 3.97159V0.971591H1.53977V3.97159H4.53977ZM4.53977 7.55114H1.53977V10.5511H4.53977V7.55114ZM11.4773 7.55114H14.4773V4.55114H11.4773V7.55114ZM11.4773 10.9858V13.9858H14.4773V10.9858H11.4773ZM4.53977 10.9858V7.9858H1.53977V10.9858H4.53977ZM4.53977 18V21H7.53977V18H4.53977ZM3.32102 18V0.545454H-2.67898V18H3.32102ZM0.321023 3.54545H12.2358V-2.45455H0.321023V3.54545ZM9.2358 0.545454V3.97159H15.2358V0.545454H9.2358ZM12.2358 0.971591H4.53977V6.97159H12.2358V0.971591ZM1.53977 3.97159V7.55114H7.53977V3.97159H1.53977ZM4.53977 10.5511H11.4773V4.55114H4.53977V10.5511ZM8.47727 7.55114V10.9858H14.4773V7.55114H8.47727ZM11.4773 7.9858H4.53977V13.9858H11.4773V7.9858ZM1.53977 10.9858V18H7.53977V10.9858H1.53977ZM4.53977 15H0.321023V21H4.53977V15ZM14.3601 18H11.3601V21H14.3601V18ZM14.3601 0.545454V-2.45455H11.3601V0.545454H14.3601ZM18.5788 0.545454H21.5788V-2.45455H18.5788V0.545454ZM18.5788 14.5739H15.5788V17.5739H18.5788V14.5739ZM25.8402 14.5739H28.8402V11.5739H25.8402V14.5739ZM25.8402 18V21H28.8402V18H25.8402ZM17.3601 18V0.545454H11.3601V18H17.3601ZM14.3601 3.54545H18.5788V-2.45455H14.3601V3.54545ZM15.5788 0.545454V14.5739H21.5788V0.545454H15.5788ZM18.5788 17.5739H25.8402V11.5739H18.5788V17.5739ZM22.8402 14.5739V18H28.8402V14.5739H22.8402ZM25.8402 15H14.3601V21H25.8402V15ZM42.7109 14.1562L40.0858 12.7041L40.0858 12.7041L42.7109 14.1562ZM39.7109 17.1989L38.2661 14.5697L38.2611 14.5725L39.7109 17.1989ZM31.2479 17.1903L32.7068 14.569L32.7068 14.569L31.2479 17.1903ZM28.2564 14.1477L25.6266 15.5913L25.6302 15.598L25.6339 15.6047L28.2564 14.1477ZM28.2564 4.3892L25.6313 2.93701L25.6266 2.9456L28.2564 4.3892ZM31.2479 1.34659L32.6977 3.97298L32.6977 3.97298L31.2479 1.34659ZM39.7109 1.34659L38.2611 3.97298L38.2661 3.97574L39.7109 1.34659ZM42.7109 4.3892L40.0858 5.84139L40.0858 5.84139L42.7109 4.3892ZM39.0206 6.39205L36.2408 7.5201L36.2443 7.52872L36.2478 7.53733L39.0206 6.39205ZM37.6399 4.61079L35.9594 7.09599L35.9704 7.10332L37.6399 4.61079ZM33.3274 4.61079L34.9969 7.10332L34.9969 7.10332L33.3274 4.61079ZM31.9382 6.39205L29.1654 5.24677L29.1619 5.25537L29.1584 5.26399L31.9382 6.39205ZM31.9382 12.1534L29.1584 13.2815L29.1619 13.2901L29.1654 13.2987L31.9382 12.1534ZM33.3274 13.9347L34.9969 11.4421L34.9969 11.4421L33.3274 13.9347ZM37.6399 13.9347L35.9704 11.4421L35.9595 11.4495L37.6399 13.9347ZM39.0206 12.1534L36.2478 11.0081L36.2443 11.0167L36.2408 11.0254L39.0206 12.1534ZM40.8189 9.27273C40.8189 10.8142 40.5229 11.914 40.0858 12.7041L45.336 15.6084C46.3763 13.728 46.8189 11.5722 46.8189 9.27273H40.8189ZM40.0858 12.7041C39.6043 13.5746 39.0004 14.1662 38.2661 14.5697L41.1558 19.828C42.9442 18.8452 44.3403 17.4084 45.336 15.6084L40.0858 12.7041ZM38.2611 14.5725C37.4883 14.9991 36.5856 15.2386 35.4837 15.2386V21.2386C37.5068 21.2386 39.4222 20.785 41.1608 19.8252L38.2611 14.5725ZM35.4837 15.2386C34.3783 15.2386 33.4763 14.9973 32.7068 14.569L29.7889 19.8117C31.5308 20.7811 33.4527 21.2386 35.4837 21.2386V15.2386ZM32.7068 14.569C31.9689 14.1583 31.3624 13.5611 30.8789 12.6908L25.6339 15.6047C26.6277 17.3934 28.0154 18.8246 29.7889 19.8117L32.7068 14.569ZM30.8862 12.7041C30.4508 11.911 30.157 10.8102 30.157 9.27273H24.157C24.157 11.5648 24.596 13.714 25.6266 15.5913L30.8862 12.7041ZM30.157 9.27273C30.157 7.7278 30.4515 6.62477 30.8862 5.83281L25.6266 2.9456C24.5954 4.8241 24.157 6.97674 24.157 9.27273H30.157ZM30.8815 5.84139C31.365 4.96741 31.9685 4.37553 32.6977 3.97298L29.798 -1.2798C28.0159 -0.295987 26.6251 1.14055 25.6313 2.93702L30.8815 5.84139ZM32.6977 3.97298C33.4688 3.54729 34.3741 3.30682 35.4837 3.30682V-2.69318C33.4569 -2.69318 31.5383 -2.24047 29.798 -1.2798L32.6977 3.97298ZM35.4837 3.30682C36.5856 3.30682 37.4883 3.5464 38.2611 3.97298L41.1608 -1.2798C39.4222 -2.23958 37.5068 -2.69318 35.4837 -2.69318V3.30682ZM38.2661 3.97574C39.0004 4.37927 39.6043 4.97086 40.0858 5.84139L45.336 2.93702C44.3403 1.13709 42.9442 -0.299722 41.1558 -1.28256L38.2661 3.97574ZM40.0858 5.84139C40.5229 6.63143 40.8189 7.73124 40.8189 9.27273H46.8189C46.8189 6.9733 46.3763 4.81744 45.336 2.93702L40.0858 5.84139ZM42.5064 9.27273C42.5064 7.86928 42.3088 6.49465 41.7934 5.24676L36.2478 7.53733C36.3801 7.85762 36.5064 8.40345 36.5064 9.27273H42.5064ZM41.8004 5.264C41.2955 4.01965 40.489 2.90832 39.3094 2.11827L35.9704 7.10332C35.9954 7.12009 36.1093 7.19625 36.2408 7.5201L41.8004 5.264ZM39.3204 2.12562C38.1487 1.33333 36.8206 1.00568 35.4837 1.00568V7.00568C35.8285 7.00568 35.938 7.08144 35.9595 7.09597L39.3204 2.12562ZM35.4837 1.00568C34.147 1.00568 32.8261 1.33578 31.6579 2.11827L34.9969 7.10332C35.0333 7.07899 35.1499 7.00568 35.4837 7.00568V1.00568ZM31.6579 2.11827C30.4834 2.90497 29.6763 4.00991 29.1654 5.24677L34.711 7.53732C34.8478 7.206 34.9669 7.12343 34.9969 7.10332L31.6579 2.11827ZM29.1584 5.26399C28.6542 6.50634 28.4609 7.87456 28.4609 9.27273H34.4609C34.4609 8.39817 34.5858 7.84593 34.718 7.5201L29.1584 5.26399ZM28.4609 9.27273C28.4609 10.6709 28.6542 12.0391 29.1584 13.2815L34.718 11.0254C34.5858 10.6995 34.4609 10.1473 34.4609 9.27273H28.4609ZM29.1654 13.2987C29.6763 14.5355 30.4834 15.6405 31.6579 16.4272L34.9969 11.4421C34.9669 11.422 34.8478 11.3395 34.711 11.0081L29.1654 13.2987ZM31.6579 16.4272C32.8261 17.2097 34.147 17.5398 35.4837 17.5398V11.5398C35.1499 11.5398 35.0333 11.4665 34.9969 11.4421L31.6579 16.4272ZM35.4837 17.5398C36.8206 17.5398 38.1487 17.2121 39.3204 16.4198L35.9595 11.4495C35.938 11.464 35.8285 11.5398 35.4837 11.5398V17.5398ZM39.3094 16.4272C40.489 15.6371 41.2955 14.5258 41.8004 13.2815L36.2408 11.0254C36.1093 11.3492 35.9954 11.4254 35.9704 11.4421L39.3094 16.4272ZM41.7934 13.2987C42.3088 12.0508 42.5064 10.6762 42.5064 9.27273H36.5064C36.5064 10.142 36.3801 10.6878 36.2478 11.0081L41.7934 13.2987ZM49.5994 18L46.7189 18.8383L47.348 21H49.5994V18ZM44.5199 0.545454V-2.45455H40.5224L41.6394 1.38373L44.5199 0.545454ZM49.1818 0.545454L52.1053 -0.127693L51.5696 -2.45455H49.1818V0.545454ZM51.8153 11.983L48.8918 12.6561L49.4276 14.983H51.8153V11.983ZM51.9602 11.983V14.983H54.2732L54.8615 12.7461L51.9602 11.983ZM54.9688 0.545454V-2.45455H52.6558L52.0674 -0.217707L54.9688 0.545454ZM58.7699 0.545454L61.6716 -0.216114L61.0841 -2.45455H58.7699V0.545454ZM61.7784 12.0085L58.8767 12.7701L59.4642 15.0085H61.7784V12.0085ZM61.9233 12.0085V15.0085H64.3105L64.8467 12.6823L61.9233 12.0085ZM64.5653 0.545454V-2.45455H62.1781L61.642 -0.128331L64.5653 0.545454ZM69.2188 0.545454L72.0996 1.38243L73.2144 -2.45455H69.2188V0.545454ZM64.1477 18V21H66.4002L67.0286 18.837L64.1477 18ZM60.0824 18L57.2066 18.8544L57.8441 21H60.0824V18ZM56.9375 7.41477L59.8133 6.56038L59.1758 4.41477H56.9375V7.41477ZM56.8011 7.41477V4.41477H54.5628L53.9254 6.56038L56.8011 7.41477ZM53.6562 18V21H55.8946L56.532 18.8544L53.6562 18ZM52.4799 17.1617L47.4004 -0.292818L41.6394 1.38373L46.7189 18.8383L52.4799 17.1617ZM44.5199 3.54545H49.1818V-2.45455H44.5199V3.54545ZM46.2583 1.2186L48.8918 12.6561L54.7388 11.3098L52.1053 -0.127693L46.2583 1.2186ZM51.8153 14.983H51.9602V8.98295H51.8153V14.983ZM54.8615 12.7461L57.8701 1.30861L52.0674 -0.217707L49.0589 11.2198L54.8615 12.7461ZM54.9688 3.54545H58.7699V-2.45455H54.9688V3.54545ZM55.8682 1.30702L58.8767 12.7701L64.6801 11.247L61.6716 -0.216114L55.8682 1.30702ZM61.7784 15.0085H61.9233V9.00852H61.7784V15.0085ZM64.8467 12.6823L67.4887 1.21924L61.642 -0.128331L58.9999 11.3347L64.8467 12.6823ZM64.5653 3.54545H69.2188V-2.45455H64.5653V3.54545ZM66.3379 -0.29152L61.2668 17.163L67.0286 18.837L72.0996 1.38243L66.3379 -0.29152ZM64.1477 15H60.0824V21H64.1477V15ZM62.9581 17.1456L59.8133 6.56038L54.0617 8.26917L57.2066 18.8544L62.9581 17.1456ZM56.9375 4.41477H56.8011V10.4148H56.9375V4.41477ZM53.9254 6.56038L50.7805 17.1456L56.532 18.8544L59.6769 8.26917L53.9254 6.56038ZM53.6562 15H49.5994V21H53.6562V15ZM70.9616 18H67.9616V21H70.9616V18ZM70.9616 0.545454V-2.45455H67.9616V0.545454H70.9616ZM83.1321 0.545454H86.1321V-2.45455H83.1321V0.545454ZM83.1321 3.97159V6.97159H86.1321V3.97159H83.1321ZM75.1804 3.97159V0.971591H72.1804V3.97159H75.1804ZM75.1804 7.55114H72.1804V10.5511H75.1804V7.55114ZM82.5099 7.55114H85.5099V4.55114H82.5099V7.55114ZM82.5099 10.9858V13.9858H85.5099V10.9858H82.5099ZM75.1804 10.9858V7.9858H72.1804V10.9858H75.1804ZM75.1804 14.5739H72.1804V17.5739H75.1804V14.5739ZM83.1321 14.5739H86.1321V11.5739H83.1321V14.5739ZM83.1321 18V21H86.1321V18H83.1321ZM73.9616 18V0.545454H67.9616V18H73.9616ZM70.9616 3.54545H83.1321V-2.45455H70.9616V3.54545ZM80.1321 0.545454V3.97159H86.1321V0.545454H80.1321ZM83.1321 0.971591H75.1804V6.97159H83.1321V0.971591ZM72.1804 3.97159V7.55114H78.1804V3.97159H72.1804ZM75.1804 10.5511H82.5099V4.55114H75.1804V10.5511ZM79.5099 7.55114V10.9858H85.5099V7.55114H79.5099ZM82.5099 7.9858H75.1804V13.9858H82.5099V7.9858ZM72.1804 10.9858V14.5739H78.1804V10.9858H72.1804ZM75.1804 17.5739H83.1321V11.5739H75.1804V17.5739ZM80.1321 14.5739V18H86.1321V14.5739H80.1321ZM83.1321 15H70.9616V21H83.1321V15ZM95.2088 5.77841L92.2211 6.05002L92.4692 8.77841H95.2088V5.77841ZM94.4503 4.32102L92.5836 6.66949L92.6001 6.68263L92.6168 6.69554L94.4503 4.32102ZM91.1861 4.00568L90.0945 1.21131L90.0945 1.21131L91.1861 4.00568ZM90.3679 4.59375L92.7746 6.38478L92.7844 6.37158L92.7941 6.35826L90.3679 4.59375ZM90.0866 5.4375L93.0838 5.56781L93.0855 5.52945L93.0862 5.49106L90.0866 5.4375ZM90.2401 6.12784L87.6353 7.61626L87.6512 7.64396L87.6676 7.67133L90.2401 6.12784ZM90.7514 6.65625L89.0438 9.12283L89.0798 9.14773L89.1165 9.17158L90.7514 6.65625ZM91.5696 7.0483L92.5786 4.22307L92.5786 4.22307L91.5696 7.0483ZM92.6435 7.34659L93.3083 4.42119L93.2902 4.41708L93.2721 4.41318L92.6435 7.34659ZM94.1435 7.6875L93.4786 10.6129L93.4928 10.6161L93.507 10.6192L94.1435 7.6875ZM96.4276 8.4375L95.1423 11.1483L95.1513 11.1525L96.4276 8.4375ZM98.098 9.55398L96.0181 11.7159L96.0249 11.7225L96.0318 11.729L98.098 9.55398ZM99.1293 11.0455L96.3576 12.1933L96.3576 12.1933L99.1293 11.0455ZM99.4872 12.9375L102.487 12.953L102.487 12.933L102.487 12.9131L99.4872 12.9375ZM98.652 15.7756L96.1918 14.0587L96.1918 14.0587L98.652 15.7756ZM96.2741 17.5909L95.1442 14.8118L95.1388 14.814L96.2741 17.5909ZM88.7315 17.5653L89.8532 14.7829L89.8532 14.7829L88.7315 17.5653ZM85.2713 12.1875V9.1875H82.2336L82.2715 12.225L85.2713 12.1875ZM89.3111 12.1875L92.3056 12.006L92.1348 9.1875H89.3111V12.1875ZM89.7628 13.5938L87.3191 15.334L87.3191 15.334L89.7628 13.5938ZM90.8622 14.446L89.7132 17.2173L89.725 17.2221L90.8622 14.446ZM93.9474 14.5057L92.8811 11.7016L92.8745 11.7041L92.8678 11.7067L93.9474 14.5057ZM94.8764 13.8665L92.5243 12.0044L92.5243 12.0044L94.8764 13.8665ZM95.2088 12.929L98.2084 12.9774L98.2092 12.9273L98.2084 12.8773L95.2088 12.929ZM94.902 12.0852L92.5973 14.0058L92.6087 14.0195L92.6203 14.033L94.902 12.0852ZM93.9815 11.4716L92.7952 14.227L92.8181 14.2369L92.8412 14.2464L93.9815 11.4716ZM92.4134 10.9858L91.7308 13.9071L91.735 13.9081L92.4134 10.9858ZM90.5895 10.5597L91.272 7.63831L91.2601 7.63556L90.5895 10.5597ZM87.0185 8.88068L85.0172 11.1157L85.0254 11.1229L87.0185 8.88068ZM85.723 5.72727L88.723 5.74015L88.723 5.72582L88.723 5.71148L85.723 5.72727ZM86.5923 2.8892L84.158 1.13584L84.158 1.13584L86.5923 2.8892ZM89.0213 0.988636L90.2285 3.73503L90.2285 3.73503L89.0213 0.988636ZM96.0781 0.997158L94.818 3.71967L94.8273 3.724L94.8367 3.72826L96.0781 0.997158ZM98.4048 2.91477L100.898 1.24671L100.898 1.24671L98.4048 2.91477ZM99.2486 5.77841V8.77841H102.28L102.248 5.747L99.2486 5.77841ZM98.1965 5.5068C98.0731 4.14919 97.4674 2.86044 96.2838 1.94651L92.6168 6.69554C92.5094 6.61263 92.3971 6.48723 92.3154 6.33035C92.2372 6.18007 92.223 6.0701 92.2211 6.05002L98.1965 5.5068ZM96.317 1.97255C95.1487 1.04393 93.7526 0.792614 92.5497 0.792614V6.79261C92.6497 6.79261 92.7227 6.79801 92.772 6.80397C92.8213 6.80992 92.8418 6.81583 92.8392 6.81508C92.836 6.81421 92.8072 6.80592 92.7605 6.783C92.713 6.75967 92.6512 6.72325 92.5836 6.66949L96.317 1.97255ZM92.5497 0.792614C91.7683 0.792614 90.9145 0.890997 90.0945 1.21131L92.2776 6.80005C92.2246 6.82076 92.2136 6.81761 92.2628 6.80992C92.3119 6.80226 92.4045 6.79261 92.5497 6.79261V0.792614ZM90.0945 1.21131C89.3363 1.50747 88.5393 2.00751 87.9417 2.82924L92.7941 6.35826C92.5601 6.67999 92.3085 6.78798 92.2776 6.80005L90.0945 1.21131ZM87.9612 2.80272C87.3876 3.57356 87.1035 4.46887 87.0871 5.38394L93.0862 5.49106C93.084 5.61407 93.0635 5.76793 93.0073 5.93661C92.9506 6.10656 92.8687 6.25833 92.7746 6.38478L87.9612 2.80272ZM87.0895 5.30719C87.0571 6.05193 87.2024 6.85865 87.6353 7.61626L92.8448 4.63942C93.0504 4.9993 93.0935 5.34579 93.0838 5.56781L87.0895 5.30719ZM87.6676 7.67133C88.0391 8.29047 88.528 8.76576 89.0438 9.12283L92.4591 4.18967C92.5316 4.23992 92.6797 4.36294 92.8125 4.58435L87.6676 7.67133ZM89.1165 9.17158C89.5806 9.4733 90.0738 9.69968 90.5606 9.87352L92.5786 4.22307C92.429 4.16964 92.3768 4.13466 92.3864 4.14092L89.1165 9.17158ZM90.5606 9.87352C91.0251 10.0394 91.5132 10.1725 92.0149 10.28L93.2721 4.41318C92.9783 4.35024 92.7505 4.28446 92.5786 4.22307L90.5606 9.87352ZM91.9786 10.272L93.4786 10.6129L94.8083 4.7621L93.3083 4.42119L91.9786 10.272ZM93.507 10.6192C94.192 10.7679 94.7284 10.952 95.1423 11.1482L97.7128 5.72676C96.8085 5.298 95.8222 4.98208 94.78 4.7558L93.507 10.6192ZM95.1513 11.1525C95.5716 11.3501 95.8432 11.5476 96.0181 11.7159L100.178 7.392C99.4551 6.6967 98.6131 6.14993 97.7038 5.72252L95.1513 11.1525ZM96.0318 11.729C96.1912 11.8804 96.2901 12.0305 96.3576 12.1933L101.901 9.89758C101.503 8.93542 100.914 8.09119 100.164 7.37898L96.0318 11.729ZM96.3576 12.1933C96.4227 12.3508 96.4843 12.5922 96.4873 12.9619L102.487 12.9131C102.479 11.8851 102.302 10.8651 101.901 9.89757L96.3576 12.1933ZM96.4873 12.922C96.4842 13.5065 96.3459 13.8379 96.1918 14.0587L101.112 17.4924C102.06 16.1337 102.479 14.573 102.487 12.953L96.4873 12.922ZM96.1918 14.0587C96.0223 14.3016 95.729 14.5741 95.1442 14.8118L97.4041 20.37C98.8875 19.7668 100.179 18.8291 101.112 17.4924L96.1918 14.0587ZM95.1388 14.814C94.5634 15.0493 93.7293 15.2216 92.5497 15.2216V21.2216C94.2792 21.2216 95.9281 20.9734 97.4094 20.3678L95.1388 14.814ZM92.5497 15.2216C91.3819 15.2216 90.5056 15.0459 89.8532 14.7829L87.6098 20.3477C89.128 20.9598 90.7971 21.2216 92.5497 21.2216V15.2216ZM89.8532 14.7829C89.2722 14.5487 88.925 14.2453 88.6866 13.8923L83.7139 17.2497C84.6801 18.6808 86.0204 19.707 87.6098 20.3477L89.8532 14.7829ZM88.6866 13.8923C88.4894 13.6002 88.2827 13.0839 88.2711 12.15L82.2715 12.225C82.294 14.0184 82.7066 15.7577 83.7139 17.2497L88.6866 13.8923ZM85.2713 15.1875H89.3111V9.1875H85.2713V15.1875ZM86.3166 12.369C86.377 13.3665 86.6599 14.4083 87.3191 15.334L92.2065 11.8535C92.264 11.9343 92.2933 12.0044 92.3058 12.0435C92.3173 12.0791 92.3096 12.0724 92.3056 12.006L86.3166 12.369ZM87.3191 15.334C87.9433 16.2106 88.779 16.8299 89.7132 17.2172L92.0113 11.6748C92.0033 11.6715 92.0308 11.682 92.0759 11.717C92.1226 11.7532 92.1688 11.8006 92.2065 11.8535L87.3191 15.334ZM89.725 17.2221C90.6262 17.5913 91.571 17.7358 92.4986 17.7358V11.7358C92.1875 11.7358 92.0414 11.6871 91.9994 11.6699L89.725 17.2221ZM92.4986 17.7358C93.3202 17.7358 94.1913 17.6271 95.0271 17.3047L92.8678 11.7067C92.9082 11.6911 92.8133 11.7358 92.4986 11.7358V17.7358ZM95.0138 17.3098C95.802 17.01 96.6047 16.5166 97.2286 15.7286L92.5243 12.0044C92.7163 11.7618 92.8997 11.6945 92.8811 11.7016L95.0138 17.3098ZM97.2286 15.7286C97.8594 14.9317 98.1922 13.9798 98.2084 12.9774L92.2092 12.8806C92.2113 12.7519 92.234 12.5941 92.2939 12.4251C92.354 12.2556 92.4377 12.1137 92.5243 12.0044L97.2286 15.7286ZM98.2084 12.8773C98.1917 11.9085 97.8703 10.9417 97.1837 10.1374L92.6203 14.033C92.4923 13.8831 92.3828 13.7007 92.3085 13.4961C92.2351 13.2944 92.2116 13.1147 92.2093 12.9807L98.2084 12.8773ZM97.2067 10.1647C96.5871 9.42127 95.8016 8.97609 95.1219 8.69677L92.8412 14.2464C92.903 14.2718 92.901 14.2772 92.8586 14.249C92.8154 14.2202 92.7133 14.145 92.5973 14.0058L97.2067 10.1647ZM95.1679 8.71614C94.5383 8.44504 93.8296 8.23479 93.0917 8.0635L91.735 13.9081C92.2698 14.0323 92.6066 14.1459 92.7952 14.227L95.1679 8.71614ZM93.0959 8.06447L91.272 7.63834L89.9069 13.481L91.7308 13.9071L93.0959 8.06447ZM91.2601 7.63556C90.0823 7.36547 89.3996 6.98339 89.0116 6.63845L85.0254 11.1229C86.376 12.3234 88.074 13.0607 89.9189 13.4838L91.2601 7.63556ZM89.0197 6.64572C88.8789 6.51963 88.7204 6.33451 88.723 5.74015L82.723 5.7144C82.7142 7.76776 83.4194 9.68492 85.0172 11.1156L89.0197 6.64572ZM88.723 5.71148C88.7204 5.21419 88.8419 4.89905 89.0266 4.64257L84.158 1.13584C83.1723 2.50436 82.7143 4.08126 82.7231 5.74306L88.723 5.71148ZM89.0266 4.64257C89.2602 4.31823 89.6206 4.00224 90.2285 3.73503L87.8141 -1.75775C86.3538 -1.11588 85.0949 -0.164824 84.158 1.13584L89.0266 4.64257ZM90.2285 3.73503C90.8223 3.474 91.5793 3.30682 92.5582 3.30682V-2.69318C90.8894 -2.69318 89.2885 -2.40582 87.8141 -1.75775L90.2285 3.73503ZM92.5582 3.30682C93.5748 3.30682 94.2999 3.47987 94.818 3.71967L97.3383 -1.72535C95.8677 -2.40601 94.2462 -2.69318 92.5582 -2.69318V3.30682ZM94.8367 3.72826C95.3853 3.97762 95.7034 4.27209 95.9113 4.58284L100.898 1.24671C100.004 -0.0902721 98.7709 -1.07421 97.3195 -1.73394L94.8367 3.72826ZM95.9113 4.58284C96.1076 4.8762 96.2429 5.25016 96.2487 5.80982L102.248 5.747C102.232 4.1362 101.804 2.60107 100.898 1.24671L95.9113 4.58284ZM99.2486 2.77841H95.2088V8.77841H99.2486V2.77841ZM101.047 3.97159H98.0469V6.97159H101.047V3.97159ZM101.047 0.545454V-2.45455H98.0469V0.545454H101.047ZM115.8 0.545454H118.8V-2.45455H115.8V0.545454ZM115.8 3.97159V6.97159H118.8V3.97159H115.8ZM110.507 3.97159V0.971591H107.507V3.97159H110.507ZM110.507 18V21H113.507V18H110.507ZM106.348 18H103.348V21H106.348V18ZM106.348 3.97159H109.348V0.971591H106.348V3.97159ZM104.047 3.97159V0.545454H98.0469V3.97159H104.047ZM101.047 3.54545H115.8V-2.45455H101.047V3.54545ZM112.8 0.545454V3.97159H118.8V0.545454H112.8ZM115.8 0.971591H110.507V6.97159H115.8V0.971591ZM107.507 3.97159V18H113.507V3.97159H107.507ZM110.507 15H106.348V21H110.507V15ZM109.348 18V3.97159H103.348V18H109.348ZM106.348 0.971591H101.047V6.97159H106.348V0.971591ZM119.456 18V21H121.66L122.319 18.897L119.456 18ZM114.922 18L112.079 17.0409L110.744 21H114.922V18ZM120.811 0.545454V-2.45455H118.657L117.969 -0.413633L120.811 0.545454ZM126.428 0.545454L129.27 -0.413633L128.582 -2.45455H126.428V0.545454ZM132.317 18V21H136.495L135.159 17.0409L132.317 18ZM127.783 18L124.92 18.8987L125.58 21H127.783V18ZM123.683 4.94318L126.545 4.04453L125.886 1.94318H123.683V4.94318ZM123.547 4.94318V1.94318H121.343L120.684 4.04623L123.547 4.94318ZM118.851 11.1307V8.13068H115.851V11.1307H118.851ZM128.328 11.1307H131.328V8.13068H128.328V11.1307ZM128.328 14.3352V17.3352H131.328V14.3352H128.328ZM118.851 14.3352H115.851V17.3352H118.851V14.3352ZM119.456 15H114.922V21H119.456V15ZM117.764 18.9591L123.654 1.50454L117.969 -0.413633L112.079 17.0409L117.764 18.9591ZM120.811 3.54545H126.428V-2.45455H120.811V3.54545ZM123.585 1.50454L129.474 18.9591L135.159 17.0409L129.27 -0.413633L123.585 1.50454ZM132.317 15H127.783V21H132.317V15ZM130.645 17.1013L126.545 4.04453L120.821 5.84183L124.92 18.8987L130.645 17.1013ZM123.683 1.94318H123.547V7.94318H123.683V1.94318ZM120.684 4.04623L116.593 17.103L122.319 18.897L126.41 5.84013L120.684 4.04623ZM118.851 14.1307H128.328V8.13068H118.851V14.1307ZM125.328 11.1307V14.3352H131.328V11.1307H125.328ZM128.328 11.3352H118.851V17.3352H128.328V11.3352ZM121.851 14.3352V11.1307H115.851V14.3352H121.851ZM131.445 3.97159H128.445V6.97159H131.445V3.97159ZM131.445 0.545454V-2.45455H128.445V0.545454H131.445ZM146.198 0.545454H149.198V-2.45455H146.198V0.545454ZM146.198 3.97159V6.97159H149.198V3.97159H146.198ZM140.906 3.97159V0.971591H137.906V3.97159H140.906ZM140.906 18V21H143.906V18H140.906ZM136.746 18H133.746V21H136.746V18ZM136.746 3.97159H139.746V0.971591H136.746V3.97159ZM134.445 3.97159V0.545454H128.445V3.97159H134.445ZM131.445 3.54545H146.198V-2.45455H131.445V3.54545ZM143.198 0.545454V3.97159H149.198V0.545454H143.198ZM146.198 0.971591H140.906V6.97159H146.198V0.971591ZM137.906 3.97159V18H143.906V3.97159H137.906ZM140.906 15H136.746V21H140.906V15ZM139.746 18V3.97159H133.746V18H139.746ZM136.746 0.971591H131.445V6.97159H136.746V0.971591ZM148.259 18H145.259V21H148.259V18ZM148.259 0.545454V-2.45455H145.259V0.545454H148.259ZM160.429 0.545454H163.429V-2.45455H160.429V0.545454ZM160.429 3.97159V6.97159H163.429V3.97159H160.429ZM152.477 3.97159V0.971591H149.477V3.97159H152.477ZM152.477 7.55114H149.477V10.5511H152.477V7.55114ZM159.807 7.55114H162.807V4.55114H159.807V7.55114ZM159.807 10.9858V13.9858H162.807V10.9858H159.807ZM152.477 10.9858V7.9858H149.477V10.9858H152.477ZM152.477 14.5739H149.477V17.5739H152.477V14.5739ZM160.429 14.5739H163.429V11.5739H160.429V14.5739ZM160.429 18V21H163.429V18H160.429ZM151.259 18V0.545454H145.259V18H151.259ZM148.259 3.54545H160.429V-2.45455H148.259V3.54545ZM157.429 0.545454V3.97159H163.429V0.545454H157.429ZM160.429 0.971591H152.477V6.97159H160.429V0.971591ZM149.477 3.97159V7.55114H155.477V3.97159H149.477ZM152.477 10.5511H159.807V4.55114H152.477V10.5511ZM156.807 7.55114V10.9858H162.807V7.55114H156.807ZM159.807 7.9858H152.477V13.9858H159.807V7.9858ZM149.477 10.9858V14.5739H155.477V10.9858H149.477ZM152.477 17.5739H160.429V11.5739H152.477V17.5739ZM157.429 14.5739V18H163.429V14.5739H157.429ZM160.429 15H148.259V21H160.429V15Z" fill="#22CF29" fill-opacity="0.4"/>
</svg>
