<svg width="127" height="17" viewBox="0 0 127 17" fill="none" xmlns="http://www.w3.org/2000/svg">
<path d="M1.496 16.24C1.304 16.24 1.104 16.208 0.896 16.144C0.704 16.08 0.536 15.928 0.392 15.688C0.264 15.448 0.2 15.08 0.2 14.584C0.2 14.264 0.232 13.848 0.296 13.336C0.36 12.808 0.448 12.128 0.56 11.296C0.64 10.768 0.728 10.064 0.824 9.184C0.936 8.288 0.992 7.352 0.992 6.376C0.992 5.944 0.976 5.488 0.944 5.008C0.912 4.512 0.848 4.064 0.752 3.664C0.56 3.712 0.416 3.736 0.32 3.736C0.224 3.736 0.152 3.712 0.104 3.664C0.0560001 3.6 0.032 3.488 0.032 3.328C0.032 3.008 0.064 2.688 0.128 2.368C0.208 2.032 0.328 1.752 0.488 1.528C0.648 1.304 0.832 1.144 1.04 1.048C1.264 0.952 1.496 0.888 1.736 0.855999C2.136 0.808 2.64 0.768 3.248 0.735999C3.872 0.687999 4.52 0.647999 5.192 0.615999C5.88 0.584 6.504 0.568 7.064 0.568C7.816 0.568 8.368 0.576 8.72 0.592C9.088 0.607999 9.368 0.631999 9.56 0.663999C9.976 0.727999 10.184 0.951999 10.184 1.336C10.184 1.608 10.128 1.856 10.016 2.08C9.92 2.288 9.8 2.48 9.656 2.656C9.48 2.912 9.288 3.096 9.08 3.208C8.888 3.304 8.632 3.336 8.312 3.304C8.04 3.272 7.664 3.248 7.184 3.232C6.72 3.2 6.184 3.184 5.576 3.184C5.32 3.184 4.984 3.192 4.568 3.208C4.152 3.224 3.712 3.248 3.248 3.28C3.232 3.824 3.184 4.448 3.104 5.152C3.024 5.84 2.936 6.544 2.84 7.264C3.272 7.232 3.792 7.208 4.4 7.192C5.008 7.16 5.632 7.136 6.272 7.12C6.912 7.104 7.48 7.096 7.976 7.096C8.264 7.096 8.472 7.136 8.6 7.216C8.728 7.28 8.792 7.432 8.792 7.672C8.792 7.944 8.72 8.24 8.576 8.56C8.448 8.864 8.272 9.128 8.048 9.352C7.84 9.576 7.616 9.68 7.376 9.664C6.976 9.632 6.408 9.608 5.672 9.592C4.952 9.576 4.192 9.568 3.392 9.568H2.624C2.592 9.92 2.56 10.272 2.528 10.624C2.512 10.96 2.504 11.272 2.504 11.56C2.504 12.12 2.56 12.616 2.672 13.048C2.784 13.464 3 13.824 3.32 14.128C3.528 14.336 3.632 14.576 3.632 14.848C3.632 15.2 3.432 15.52 3.032 15.808C2.632 16.096 2.12 16.24 1.496 16.24ZM14.9743 16.312C13.8863 16.312 13.0463 16.192 12.4543 15.952C11.8623 15.712 11.4543 15.376 11.2303 14.944C11.0063 14.512 10.8943 14 10.8943 13.408C10.8943 13.12 10.9183 12.8 10.9663 12.448C11.0143 12.08 11.0703 11.664 11.1343 11.2C11.4223 9.44 11.5663 7.88 11.5663 6.52C11.5663 5.624 11.5263 4.864 11.4463 4.24C11.3823 3.6 11.1743 2.992 10.8223 2.416C10.7583 2.32 10.7023 2.224 10.6543 2.128C10.6063 2.016 10.5823 1.928 10.5823 1.864C10.5823 1.672 10.6943 1.472 10.9183 1.264C11.1423 1.056 11.4143 0.879999 11.7343 0.735999C12.0543 0.591999 12.3583 0.519999 12.6463 0.519999C13.1903 0.519999 13.5263 0.735999 13.6543 1.168C13.7983 1.6 13.8703 2.216 13.8703 3.016C13.8703 3.32 13.8383 3.808 13.7743 4.48C13.7103 5.136 13.6143 5.976 13.4863 7C13.3583 7.992 13.2623 8.848 13.1983 9.568C13.1343 10.288 13.1023 10.864 13.1023 11.296C13.1023 11.936 13.1743 12.424 13.3183 12.76C13.4783 13.08 13.7343 13.304 14.0863 13.432C14.4383 13.56 14.9343 13.624 15.5742 13.624C16.2623 13.624 16.9183 13.568 17.5423 13.456C18.1663 13.328 18.7743 13.136 19.3663 12.88C19.4463 12.848 19.5183 12.824 19.5823 12.808C19.6463 12.792 19.7023 12.784 19.7503 12.784C19.8943 12.784 20.0303 12.872 20.1583 13.048C20.2863 13.224 20.3503 13.472 20.3503 13.792C20.3503 14.496 19.9663 15.048 19.1983 15.448C18.1743 16.024 16.7663 16.312 14.9743 16.312ZM26.7406 16.312C25.0926 16.312 23.7726 15.832 22.7806 14.872C21.8046 13.896 21.3166 12.464 21.3166 10.576C21.3166 9.728 21.4286 8.848 21.6526 7.936C21.8926 7.024 22.2846 6.12 22.8286 5.224C22.5246 5.496 22.2366 5.632 21.9646 5.632C21.5006 5.632 21.2686 5.264 21.2686 4.528C21.2686 4 21.3806 3.576 21.6046 3.256C21.8286 2.936 22.0446 2.68 22.2526 2.488C22.6046 2.184 23.0526 1.88 23.5966 1.576C24.1406 1.256 24.7806 0.991999 25.5166 0.784C26.2526 0.576 27.0766 0.472 27.9886 0.472C30.1326 0.472 31.7406 1.08 32.8126 2.296C33.9006 3.496 34.4446 5.168 34.4446 7.312C34.4446 8.576 34.2606 9.752 33.8926 10.84C33.5246 11.928 32.9966 12.88 32.3086 13.696C31.6366 14.512 30.8286 15.152 29.8846 15.616C28.9406 16.08 27.8926 16.312 26.7406 16.312ZM27.5806 13.624C28.3806 13.624 29.1646 13.44 29.9326 13.072C30.7166 12.704 31.3566 12.12 31.8526 11.32C32.3646 10.504 32.6206 9.448 32.6206 8.152C32.6206 6.936 32.3886 5.968 31.9246 5.248C31.4606 4.512 30.8686 3.984 30.1486 3.664C29.4446 3.328 28.7006 3.16 27.9166 3.16C27.3246 3.16 26.7886 3.24 26.3086 3.4C25.8446 3.544 25.4286 3.704 25.0606 3.88C24.6446 4.52 24.2526 5.304 23.8846 6.232C23.5166 7.144 23.3326 8.112 23.3326 9.136C23.3326 10.16 23.5326 11.008 23.9326 11.68C24.3326 12.336 24.8526 12.824 25.4926 13.144C26.1486 13.464 26.8446 13.624 27.5806 13.624ZM40.4731 16.336C39.9291 16.336 39.5051 16.184 39.2011 15.88C38.9131 15.56 38.7531 14.96 38.7211 14.08C38.7051 13.136 38.6571 12.2 38.5771 11.272C38.4971 10.344 38.3691 9.464 38.1931 8.632C37.9531 7.416 37.6251 6.32 37.2091 5.344C36.7931 4.368 36.2091 3.528 35.4571 2.824C35.3291 2.696 35.2251 2.576 35.1451 2.464C35.0651 2.352 35.0251 2.224 35.0251 2.08C35.0251 1.744 35.2011 1.424 35.5531 1.12C35.9051 0.799999 36.3211 0.639999 36.8011 0.639999C37.3611 0.639999 37.8411 0.879999 38.2411 1.36C38.6411 1.84 38.9851 2.512 39.2731 3.376C39.6091 4.256 39.8731 5.216 40.0651 6.256C40.2571 7.296 40.3851 8.36 40.4491 9.448C40.5291 10.52 40.5691 11.56 40.5691 12.568C40.5691 12.92 40.6171 13.152 40.7131 13.264C40.8091 13.376 40.9771 13.432 41.2171 13.432C41.7451 13.432 42.2651 13.272 42.7771 12.952C43.3051 12.632 43.7771 12.2 44.1931 11.656C44.6251 11.096 44.9691 10.48 45.2251 9.808C45.4811 9.136 45.6171 8.456 45.6331 7.768C45.6491 7.048 45.5211 6.352 45.2491 5.68C44.9931 4.992 44.6571 4.408 44.2411 3.928C44.1291 3.8 44.0411 3.688 43.9771 3.592C43.9291 3.48 43.9051 3.368 43.9051 3.256C43.9051 3 44.0091 2.752 44.2171 2.512C44.4251 2.272 44.6651 2.072 44.9371 1.912C45.2091 1.752 45.4411 1.672 45.6331 1.672C46.0331 1.672 46.3691 1.968 46.6411 2.56C46.9291 3.136 47.1691 3.84 47.3611 4.672C47.6331 5.728 47.8251 6.912 47.9371 8.224C48.0491 9.536 48.1051 10.92 48.1051 12.376C48.1051 12.776 48.1451 13.048 48.2251 13.192C48.3051 13.336 48.4811 13.408 48.7531 13.408C49.3291 13.408 49.8891 13.2 50.4331 12.784C50.9771 12.368 51.4571 11.8 51.8731 11.08C52.3051 10.344 52.6411 9.512 52.8811 8.584C53.1371 7.64 53.2651 6.648 53.2651 5.608C53.2651 4.824 53.2011 4.192 53.0731 3.712C52.9611 3.216 52.8491 2.864 52.7371 2.656C52.5771 2.352 52.4971 2.096 52.4971 1.888C52.4971 1.648 52.6011 1.424 52.8091 1.216C53.0331 0.991999 53.2971 0.807999 53.6011 0.663999C53.9051 0.52 54.1691 0.448 54.3931 0.448C54.7451 0.448 54.9931 0.6 55.1371 0.904C55.2971 1.192 55.3931 1.552 55.4251 1.984C55.4731 2.416 55.4971 2.824 55.4971 3.208C55.4971 4.312 55.3771 5.472 55.1371 6.688C54.9131 7.888 54.5851 9.064 54.1531 10.216C53.7211 11.352 53.2011 12.384 52.5931 13.312C52.0011 14.224 51.3291 14.96 50.5771 15.52C49.8251 16.064 49.0171 16.336 48.1531 16.336C47.5771 16.336 47.1531 16.208 46.8811 15.952C46.6091 15.696 46.4331 15.336 46.3531 14.872C46.2731 14.408 46.2331 13.864 46.2331 13.24C46.2331 12.872 46.2331 12.528 46.2331 12.208C46.2491 11.872 46.2571 11.568 46.2571 11.296C45.5211 12.944 44.6331 14.2 43.5931 15.064C42.5531 15.912 41.5131 16.336 40.4731 16.336ZM61.9498 16.312C60.4298 16.312 59.3018 16.072 58.5658 15.592C57.8458 15.096 57.4858 14.176 57.4858 12.832C57.4858 12.56 57.5018 12.232 57.5338 11.848C57.5818 11.464 57.6458 11 57.7258 10.456C57.8538 9.672 57.9498 8.976 58.0138 8.368C58.0778 7.744 58.1098 7.064 58.1098 6.328C58.1098 5.848 58.0938 5.384 58.0618 4.936C58.0458 4.488 58.0058 4.064 57.9418 3.664C57.7018 3.712 57.5418 3.736 57.4618 3.736C57.3338 3.736 57.2458 3.712 57.1978 3.664C57.1498 3.6 57.1258 3.488 57.1258 3.328C57.1258 2.992 57.1658 2.664 57.2458 2.344C57.3258 2.008 57.4378 1.736 57.5818 1.528C57.8538 1.144 58.2698 0.919999 58.8298 0.855999C59.2618 0.808 59.7898 0.76 60.4138 0.711999C61.0538 0.663999 61.7018 0.631999 62.3578 0.615999C63.0298 0.584 63.6298 0.568 64.1578 0.568C65.6298 0.568 66.5018 0.599999 66.7738 0.663999C67.1898 0.727999 67.3978 0.951999 67.3978 1.336C67.3978 1.816 67.2298 2.256 66.8938 2.656C66.7178 2.896 66.5418 3.072 66.3658 3.184C66.1898 3.28 65.9418 3.32 65.6218 3.304C64.9178 3.256 64.3018 3.224 63.7738 3.208C63.2458 3.192 62.8778 3.184 62.6698 3.184C62.3018 3.184 61.9178 3.192 61.5178 3.208C61.1338 3.224 60.7418 3.248 60.3418 3.28C60.3418 3.84 60.3178 4.44 60.2698 5.08C60.2218 5.72 60.1578 6.392 60.0778 7.096C60.8138 7.048 61.6458 7.016 62.5738 7C63.5018 6.968 64.3258 6.952 65.0458 6.952C65.3658 6.952 65.5818 6.984 65.6938 7.048C65.8218 7.112 65.8858 7.28 65.8858 7.552C65.8858 7.808 65.8138 8.096 65.6698 8.416C65.5418 8.72 65.3658 8.984 65.1418 9.208C65.0458 9.304 64.9418 9.384 64.8298 9.448C64.7178 9.496 64.5658 9.512 64.3738 9.496C63.6858 9.464 62.9018 9.44 62.0218 9.424C61.1578 9.408 60.3978 9.408 59.7418 9.424C59.6778 9.792 59.6298 10.128 59.5978 10.432C59.5658 10.736 59.5498 11.008 59.5498 11.248C59.5498 12.128 59.7738 12.744 60.2218 13.096C60.6698 13.448 61.4058 13.624 62.4297 13.624C63.0538 13.624 63.6538 13.568 64.2298 13.456C64.8218 13.344 65.4218 13.136 66.0298 12.832C66.2538 12.704 66.4218 12.64 66.5338 12.64C66.7098 12.64 66.8778 12.768 67.0378 13.024C67.2138 13.264 67.3018 13.528 67.3018 13.816C67.3018 14.168 67.1658 14.504 66.8938 14.824C66.6378 15.128 66.2938 15.392 65.8618 15.616C65.3658 15.84 64.7738 16.008 64.0858 16.12C63.3978 16.248 62.6858 16.312 61.9498 16.312ZM72.9149 16.312C72.1309 16.312 71.4029 16.2 70.7309 15.976C70.0749 15.736 69.5469 15.408 69.1469 14.992C68.7469 14.576 68.5469 14.088 68.5469 13.528C68.5469 13.16 68.6349 12.84 68.8109 12.568C68.9869 12.28 69.2269 12.136 69.5309 12.136C69.7229 12.136 69.9229 12.208 70.1309 12.352C70.5309 12.704 71.0429 13.016 71.6669 13.288C72.3069 13.544 72.9869 13.672 73.7069 13.672C74.6509 13.672 75.4189 13.488 76.0109 13.12C76.6189 12.736 76.9229 12.224 76.9229 11.584C76.9229 10.976 76.6429 10.536 76.0829 10.264C75.5229 9.992 74.7469 9.736 73.7549 9.496C73.0189 9.32 72.3069 9.096 71.6189 8.824C70.9469 8.552 70.3869 8.176 69.9389 7.696C69.5069 7.2 69.2909 6.544 69.2909 5.728C69.2909 5.104 69.4269 4.488 69.6989 3.88C69.9709 3.256 70.3709 2.688 70.8989 2.176C71.4269 1.664 72.0669 1.256 72.8189 0.951999C73.5709 0.631999 74.4189 0.472 75.3629 0.472C76.0669 0.472 76.7069 0.552 77.2829 0.711999C77.8749 0.871999 78.3389 1.096 78.6749 1.384C79.0269 1.672 79.2029 2.024 79.2029 2.44C79.2029 2.76 79.1149 3.04 78.9389 3.28C78.7629 3.52 78.5549 3.712 78.3149 3.856C78.0749 3.984 77.8669 4.048 77.6909 4.048C77.5309 4.048 77.3149 3.976 77.0429 3.832C76.5949 3.592 76.0909 3.408 75.5309 3.28C74.9869 3.136 74.5069 3.064 74.0909 3.064C73.3069 3.064 72.6669 3.24 72.1709 3.592C71.6909 3.928 71.4509 4.328 71.4509 4.792C71.4509 5.304 71.7549 5.736 72.3629 6.088C72.9869 6.424 74.0989 6.784 75.6989 7.168C76.7869 7.456 77.6349 7.856 78.2429 8.368C78.8509 8.864 79.1549 9.656 79.1549 10.744C79.1549 11.72 78.8909 12.632 78.3629 13.48C77.8509 14.328 77.1229 15.016 76.1789 15.544C75.2509 16.056 74.1629 16.312 72.9149 16.312ZM85.6143 16.24C85.4223 16.24 85.2223 16.208 85.0143 16.144C84.8223 16.08 84.6623 15.928 84.5343 15.688C84.4063 15.448 84.3423 15.08 84.3423 14.584C84.3423 14.232 84.3663 13.8 84.4143 13.288C84.4783 12.776 84.5583 12.224 84.6543 11.632C84.7823 10.832 84.8863 9.992 84.9663 9.112C85.0623 8.216 85.1103 7.304 85.1103 6.376C85.1103 5.624 85.0703 4.976 84.9903 4.432C84.9263 3.872 84.8383 3.44 84.7263 3.136C84.1183 3.152 83.5423 3.192 82.9983 3.256C82.4543 3.32 81.9023 3.424 81.3423 3.568C81.1983 3.584 81.0703 3.608 80.9583 3.64C80.8623 3.656 80.7663 3.664 80.6703 3.664C80.5263 3.664 80.4223 3.64 80.3583 3.592C80.2943 3.528 80.2623 3.384 80.2623 3.16C80.2623 2.888 80.3023 2.608 80.3823 2.32C80.4623 2.016 80.5823 1.76 80.7423 1.552C80.9023 1.328 81.0863 1.168 81.2943 1.072C81.5183 0.96 81.7583 0.888 82.0143 0.855999C82.4143 0.808 82.9263 0.768 83.5503 0.735999C84.1743 0.687999 84.8543 0.647999 85.5903 0.615999C86.3423 0.584 87.0783 0.568 87.7983 0.568C88.9663 0.568 89.7983 0.576 90.2943 0.592C90.8063 0.607999 91.1503 0.631999 91.3263 0.663999C91.5503 0.695999 91.7023 0.767999 91.7823 0.879999C91.8783 0.975999 91.9263 1.136 91.9263 1.36C91.9263 1.792 91.7343 2.224 91.3503 2.656C91.1903 2.848 91.0223 3 90.8463 3.112C90.6703 3.208 90.4383 3.248 90.1503 3.232C89.8943 3.2 89.5183 3.176 89.0223 3.16C88.5263 3.144 87.9743 3.136 87.3663 3.136C87.3503 3.696 87.3023 4.352 87.2223 5.104C87.1583 5.84 87.0783 6.584 86.9823 7.336C86.8863 8.072 86.8063 8.808 86.7423 9.544C86.6783 10.28 86.6463 10.952 86.6463 11.56C86.6463 12.12 86.6943 12.616 86.7903 13.048C86.9023 13.464 87.1183 13.824 87.4383 14.128C87.6623 14.352 87.7743 14.592 87.7743 14.848C87.7743 15.2 87.5743 15.52 87.1743 15.808C86.7743 16.096 86.2543 16.24 85.6143 16.24ZM102.789 16.264C102.293 16.264 101.869 16.056 101.517 15.64C101.181 15.208 100.853 14.504 100.533 13.528C100.373 13.048 100.237 12.584 100.125 12.136C100.029 11.672 99.9571 11.224 99.9091 10.792C99.7011 11.112 99.5091 11.328 99.3331 11.44C99.1731 11.536 98.9331 11.584 98.6131 11.584C97.8291 11.584 96.9971 11.576 96.1171 11.56C95.2371 11.528 94.4531 11.504 93.7651 11.488C93.7331 11.776 93.7011 12.072 93.6691 12.376C93.6531 12.664 93.6451 12.952 93.6451 13.24C93.6451 13.496 93.6531 13.752 93.6691 14.008C93.7011 14.264 93.7251 14.512 93.7411 14.752C93.7891 15.2 93.6131 15.56 93.2131 15.832C92.8131 16.104 92.3171 16.24 91.7251 16.24C91.2131 16.24 90.9571 16.016 90.9571 15.568C90.9571 15.296 91.0291 14.888 91.1731 14.344C91.2531 13.976 91.3171 13.664 91.3651 13.408C91.4131 13.136 91.4371 12.92 91.4371 12.76C91.4371 12.312 91.3011 12.008 91.0291 11.848C90.8051 11.72 90.6931 11.552 90.6931 11.344C90.6931 11.152 90.7331 10.92 90.8131 10.648C90.9091 10.376 91.0291 10.128 91.1731 9.904C91.3171 9.664 91.4531 9.496 91.5811 9.4C91.6931 9.336 91.8291 9.28 91.9891 9.232C92.1491 9.184 92.3491 9.152 92.5891 9.136C93.2131 7.344 93.9091 5.8 94.6771 4.504C95.4611 3.192 96.2931 2.184 97.1731 1.48C98.0531 0.759999 98.9491 0.399999 99.8611 0.399999C100.421 0.399999 100.829 0.591999 101.085 0.975999C101.341 1.344 101.469 1.968 101.469 2.848V3.928C101.469 5.544 101.589 7.032 101.829 8.392C102.069 9.752 102.365 10.856 102.717 11.704C103.069 12.6 103.557 13.336 104.181 13.912C104.373 14.072 104.501 14.216 104.565 14.344C104.629 14.456 104.661 14.576 104.661 14.704C104.661 14.944 104.565 15.184 104.373 15.424C104.197 15.664 103.965 15.864 103.677 16.024C103.389 16.184 103.093 16.264 102.789 16.264ZM94.4851 8.992C95.2691 8.96 95.9571 8.936 96.5491 8.92C97.1411 8.888 97.6371 8.872 98.0371 8.872H99.7171C99.6851 8.424 99.6531 7.952 99.6211 7.456C99.6051 6.96 99.5971 6.44 99.5971 5.896V4.504C99.5971 4.04 99.5411 3.736 99.4291 3.592C99.3331 3.432 99.1411 3.352 98.8531 3.352C98.0691 3.352 97.2851 3.864 96.5011 4.888C95.7171 5.912 95.0451 7.28 94.4851 8.992ZM109.427 16.24C109.235 16.24 109.035 16.208 108.827 16.144C108.635 16.08 108.475 15.928 108.347 15.688C108.219 15.448 108.155 15.08 108.155 14.584C108.155 14.232 108.179 13.8 108.227 13.288C108.291 12.776 108.371 12.224 108.467 11.632C108.595 10.832 108.699 9.992 108.779 9.112C108.875 8.216 108.923 7.304 108.923 6.376C108.923 5.624 108.883 4.976 108.803 4.432C108.739 3.872 108.651 3.44 108.539 3.136C107.931 3.152 107.355 3.192 106.811 3.256C106.267 3.32 105.715 3.424 105.155 3.568C105.011 3.584 104.883 3.608 104.771 3.64C104.675 3.656 104.579 3.664 104.483 3.664C104.339 3.664 104.235 3.64 104.171 3.592C104.107 3.528 104.075 3.384 104.075 3.16C104.075 2.888 104.115 2.608 104.195 2.32C104.275 2.016 104.395 1.76 104.555 1.552C104.715 1.328 104.899 1.168 105.107 1.072C105.331 0.96 105.571 0.888 105.827 0.855999C106.227 0.808 106.739 0.768 107.363 0.735999C107.987 0.687999 108.667 0.647999 109.403 0.615999C110.155 0.584 110.891 0.568 111.611 0.568C112.779 0.568 113.611 0.576 114.107 0.592C114.619 0.607999 114.963 0.631999 115.139 0.663999C115.363 0.695999 115.515 0.767999 115.595 0.879999C115.691 0.975999 115.739 1.136 115.739 1.36C115.739 1.792 115.547 2.224 115.163 2.656C115.003 2.848 114.835 3 114.659 3.112C114.483 3.208 114.251 3.248 113.963 3.232C113.707 3.2 113.331 3.176 112.835 3.16C112.339 3.144 111.787 3.136 111.179 3.136C111.163 3.696 111.115 4.352 111.035 5.104C110.971 5.84 110.891 6.584 110.795 7.336C110.699 8.072 110.619 8.808 110.555 9.544C110.491 10.28 110.459 10.952 110.459 11.56C110.459 12.12 110.507 12.616 110.603 13.048C110.715 13.464 110.931 13.824 111.251 14.128C111.475 14.352 111.587 14.592 111.587 14.848C111.587 15.2 111.387 15.52 110.987 15.808C110.587 16.096 110.067 16.24 109.427 16.24ZM121.504 16.312C119.984 16.312 118.856 16.072 118.12 15.592C117.4 15.096 117.04 14.176 117.04 12.832C117.04 12.56 117.056 12.232 117.088 11.848C117.136 11.464 117.2 11 117.28 10.456C117.408 9.672 117.504 8.976 117.568 8.368C117.632 7.744 117.664 7.064 117.664 6.328C117.664 5.848 117.648 5.384 117.616 4.936C117.6 4.488 117.56 4.064 117.496 3.664C117.256 3.712 117.096 3.736 117.016 3.736C116.888 3.736 116.8 3.712 116.752 3.664C116.704 3.6 116.68 3.488 116.68 3.328C116.68 2.992 116.72 2.664 116.8 2.344C116.88 2.008 116.992 1.736 117.136 1.528C117.408 1.144 117.824 0.919999 118.384 0.855999C118.816 0.808 119.344 0.76 119.968 0.711999C120.608 0.663999 121.256 0.631999 121.912 0.615999C122.584 0.584 123.184 0.568 123.712 0.568C125.184 0.568 126.056 0.599999 126.328 0.663999C126.744 0.727999 126.952 0.951999 126.952 1.336C126.952 1.816 126.784 2.256 126.448 2.656C126.272 2.896 126.096 3.072 125.92 3.184C125.744 3.28 125.496 3.32 125.176 3.304C124.472 3.256 123.856 3.224 123.328 3.208C122.8 3.192 122.432 3.184 122.224 3.184C121.856 3.184 121.472 3.192 121.072 3.208C120.688 3.224 120.296 3.248 119.896 3.28C119.896 3.84 119.872 4.44 119.824 5.08C119.776 5.72 119.712 6.392 119.632 7.096C120.368 7.048 121.2 7.016 122.128 7C123.056 6.968 123.88 6.952 124.6 6.952C124.92 6.952 125.136 6.984 125.248 7.048C125.376 7.112 125.44 7.28 125.44 7.552C125.44 7.808 125.368 8.096 125.224 8.416C125.096 8.72 124.92 8.984 124.696 9.208C124.6 9.304 124.496 9.384 124.384 9.448C124.272 9.496 124.12 9.512 123.928 9.496C123.24 9.464 122.456 9.44 121.576 9.424C120.712 9.408 119.952 9.408 119.296 9.424C119.232 9.792 119.184 10.128 119.152 10.432C119.12 10.736 119.104 11.008 119.104 11.248C119.104 12.128 119.328 12.744 119.776 13.096C120.224 13.448 120.96 13.624 121.984 13.624C122.608 13.624 123.208 13.568 123.784 13.456C124.376 13.344 124.976 13.136 125.584 12.832C125.808 12.704 125.976 12.64 126.088 12.64C126.264 12.64 126.432 12.768 126.592 13.024C126.768 13.264 126.856 13.528 126.856 13.816C126.856 14.168 126.72 14.504 126.448 14.824C126.192 15.128 125.848 15.392 125.416 15.616C124.92 15.84 124.328 16.008 123.64 16.12C122.952 16.248 122.24 16.312 121.504 16.312Z" fill="#22CF29"/>
</svg>
